{
  "asset": { "version": "2.0", "generator": "OpenAsset Depot test fixture" },
  "scene": 0,
  "scenes": [{ "nodes": [0] }],
  "nodes": [{ "mesh": 0 }],
  "meshes": [{
    "primitives": [{
      "attributes": { "POSITION": 0, "NORMAL": 1 },
      "indices": 2,
      "material": 0
    }]
  }],
  "materials": [{
    "pbrMetallicRoughness": {
      "baseColorFactor": [0.18, 0.72, 0.62, 1.0],
      "metallicFactor": 0.0,
      "roughnessFactor": 0.65
    },
    "doubleSided": true
  }],
  "buffers": [{
    "byteLength": 80,
    "uri": "data:application/octet-stream;base64,"
  }],
  "bufferViews": [
    { "buffer": 0, "byteOffset": 0, "byteLength": 36, "target": 34962 },
    { "buffer": 0, "byteOffset": 36, "byteLength": 36, "target": 34962 },
    { "buffer": 0, "byteOffset": 72, "byteLength": 6, "target": 34963 }
  ],
  "accessors": [
    {
      "bufferView": 0,
      "componentType": 5126,
      "count": 3,
      "type": "VEC3",
      "min": [-1, -1, 0],
      "max": [1, 1, 0]
    },
    { "bufferView": 1, "componentType": 5126, "count": 3, "type": "VEC3" },
    { "bufferView": 2, "componentType": 5123, "count": 3, "type": "SCALAR" }
  ]
}
